<?xml version="1.0" standalone="no"?>
<!DOCTYPE svg PUBLIC "-//W3C//DTD SVG 20010904//EN"
 "http://www.w3.org/TR/2001/REC-SVG-20010904/DTD/svg10.dtd">
<svg version="1.0" xmlns="http://www.w3.org/2000/svg"
 width="1042.000000pt" height="1042.000000pt" viewBox="0 0 1042.000000 1042.000000"
 preserveAspectRatio="xMidYMid meet">

<g transform="translate(0.000000,1042.000000) scale(0.100000,-0.100000)"
fill="#000000" stroke="none">
<path d="M2802 7670 c-64 -39 -88 -114 -58 -183 8 -19 973 -990 2373 -2388
2548 -2546 2374 -2380 2462 -2363 44 9 98 65 106 108 16 83 154 -59 -2363
2459 -1297 1297 -2369 2365 -2384 2373 -38 20 -97 17 -136 -6z"/>
<path d="M7485 7679 c-11 -6 -419 -410 -908 -898 -959 -958 -920 -914 -898
-999 21 -76 103 -118 188 -98 19 5 260 239 781 759 l752 752 0 -1370 c0 -1318
1 -1372 19 -1405 52 -97 200 -97 252 0 18 33 19 92 19 1595 0 1465 -1 1562
-18 1595 -33 67 -127 101 -187 69z"/>
<path d="M2795 6221 c-16 -11 -38 -35 -47 -53 -17 -31 -18 -130 -18 -1678 0
-1546 1 -1647 18 -1679 36 -73 108 -97 186 -63 37 17 51 30 66 64 19 42 20 77
20 1488 l0 1445 693 -692 c601 -601 697 -693 732 -702 112 -29 209 69 177 177
-9 30 -182 208 -846 871 l-835 835 -58 3 c-46 3 -64 0 -88 -16z"/>
</g>
</svg>
