<?xml version="1.0" encoding="utf-8"?>
<!-- Svg Vector Icons : http://www.onlinewebfonts.com/icon -->
<!DOCTYPE svg PUBLIC "-//W3C//DTD SVG 1.1//EN" "http://www.w3.org/Graphics/SVG/1.1/DTD/svg11.dtd">
<svg version="1.1" xmlns="http://www.w3.org/2000/svg" xmlns:xlink="http://www.w3.org/1999/xlink" x="0px" y="0px" viewBox="0 0 256 256" enable-background="new 0 0 256 256" xml:space="preserve">
<metadata> Svg Vector Icons : http://www.onlinewebfonts.com/icon </metadata>
<g><g><path fill="#000000" d="M128,10C62.8,10,10,62.8,10,128s52.8,118,118,118s118-52.8,118-118S193.2,10,128,10z M194.4,193.2h-20.5v-77.6c0-6.2,0.6-15.5,1.9-28.6h-0.6c-1.9,7.4-4.4,14.9-7.4,23l-32.3,83.2h-14.9L87.6,110c-3.1-8.7-5-16.2-6.8-23h-0.6c0.6,9.9,1.3,19.2,1.3,28.6v77.6H61.6V62.8h26.1L123,151c0.6,1.9,1.9,5.6,3.7,10.5c0.6,1.9,0.6,3.7,1.3,4.4c1.9-5.6,3.7-11.2,5.6-14.9l34.8-88.2h26.1L194.4,193.2L194.4,193.2z"/></g></g>
</svg>